<svg width="5" height="14" viewBox="0 0 5 14" fill="none" xmlns="http://www.w3.org/2000/svg">
<path d="M4.375 11.8125C4.375 10.6094 3.39062 9.625 2.1875 9.625C0.957031 9.625 0 10.6094 0 11.8125C0 13.043 0.957031 14 2.1875 14C3.39062 14 4.375 13.043 4.375 11.8125ZM0.246094 0.710938L0.601562 8.14844C0.628906 8.47656 0.929688 8.75 1.25781 8.75H3.08984C3.41797 8.75 3.71875 8.47656 3.74609 8.14844L4.10156 0.710938C4.12891 0.328125 3.82812 0 3.44531 0H0.902344C0.519531 0 0.21875 0.328125 0.246094 0.710938Z" fill="#343B41"/>
</svg>
